<svg xmlns="http://www.w3.org/2000/svg" width="220" height="220" viewBox="0 0 220 220">
  <g fill="none" stroke="#7AA874" stroke-width="1.6" stroke-linecap="round" stroke-linejoin="round" opacity="0.22">

    <!-- Matcha leaf -->
    <path d="M38 18 C56 24 62 46 40 62 C18 46 22 24 38 18 Z"/>
    <path d="M39 21 L39 59"/>
    <path d="M39 32 L30 28 M39 32 L48 28 M39 44 L30 48 M39 44 L48 48"/>

    <!-- Whisk (chasen) -->
    <path d="M168 96 L168 130"/>
    <path d="M168 130 C160 142 156 156 150 172"/>
    <path d="M168 130 C164 144 163 158 160 174"/>
    <path d="M168 130 C168 145 168 160 168 176"/>
    <path d="M168 130 C172 144 173 158 176 174"/>
    <path d="M168 130 C176 142 180 156 186 172"/>

    <!-- Cup with a little heart of latte art -->
    <ellipse cx="48" cy="148" rx="22" ry="9"/>
    <path d="M26 148 C26 168 70 168 70 148"/>
    <path d="M40 145 C42 141 47 141 48 145 C49 141 54 141 56 145 C56 150 48 155 48 155 C48 155 40 150 40 145 Z"/>

    <!-- Scattered matcha specks -->
    <circle cx="110" cy="40" r="2"/>
    <circle cx="120" cy="50" r="1.4"/>
    <circle cx="100" cy="55" r="1.6"/>
    <circle cx="190" cy="40" r="1.8"/>
    <circle cx="20" cy="100" r="1.6"/>
    <circle cx="100" cy="190" r="2"/>
    <circle cx="120" cy="200" r="1.4"/>

    <!-- A second small leaf, lower right corner, rotated -->
    <g transform="translate(190,195) rotate(150)">
      <path d="M0 -10 C9 -7 11 6 0 12 C-9 6 -7 -7 0 -10 Z"/>
      <path d="M0 -8 L0 10"/>
    </g>
  </g>
</svg>
